#tb 0: 1/25
0,          0,          0,        1,   299520, 0xd2650c47
0,          1,          1,        1,   299520, 0x80c6aab0
0,          2,          2,        1,   299520, 0x723a81a9
0,          3,          3,        1,   299520, 0xe2eae525
0,          4,          4,        1,   299520, 0xfa9f6a63
0,          5,          5,        1,   299520, 0x954a9e6c
0,          6,          6,        1,   299520, 0xf67f9a5f
0,          7,          7,        1,   299520, 0x87bb6088
0,          8,          8,        1,   299520, 0x5a0402d8
0,          9,          9,        1,   299520, 0x70096b46
0,         10,         10,        1,   299520, 0xf0a37ba7
0,         11,         11,        1,   299520, 0x9266546e
0,         12,         12,        1,   299520, 0xb5344d81
0,         13,         13,        1,   299520, 0x0007c753
0,         14,         14,        1,   299520, 0x73aa25bd
0,         15,         15,        1,   299520, 0xc604834a
0,         16,         16,        1,   299520, 0x4e817032
0,         17,         17,        1,   299520, 0xf6e5f6f8
0,         18,         18,        1,   299520, 0x433710c5
0,         19,         19,        1,   299520, 0x91661f39
0,         20,         20,        1,   299520, 0x411147d9
0,         21,         21,        1,   299520, 0xf45a6c10
0,         22,         22,        1,   299520, 0x6ce62392
0,         23,         23,        1,   299520, 0xef184676
0,         24,         24,        1,   299520, 0x2196f633
0,         25,         25,        1,   299520, 0xe5902ca7
0,         26,         26,        1,   299520, 0xd56a9794
0,         27,         27,        1,   299520, 0xf9995602
0,         28,         28,        1,   299520, 0x2e8bf3a7
0,         29,         29,        1,   299520, 0x23adf19e
0,         30,         30,        1,   299520, 0x7c28a869
0,         31,         31,        1,   299520, 0x0452494b
0,         32,         32,        1,   299520, 0xc489beb1
0,         33,         33,        1,   299520, 0x27d04672
0,         34,         34,        1,   299520, 0xfe509bea
0,         35,         35,        1,   299520, 0x69f4ec9b
0,         36,         36,        1,   299520, 0x0dacd13e
0,         37,         37,        1,   299520, 0x345d79f5
0,         38,         38,        1,   299520, 0xb7b34667
0,         39,         39,        1,   299520, 0x028a13ac
0,         40,         40,        1,   299520, 0xa145f428
0,         41,         41,        1,   299520, 0xdbad2947
0,         42,         42,        1,   299520, 0x99d4d4b0
0,         43,         43,        1,   299520, 0x5e5b1faf
0,         44,         44,        1,   299520, 0x354d6f6b
